<svg width="23" height="24" viewBox="0 0 23 24" fill="none" xmlns="http://www.w3.org/2000/svg">
<rect width="22.3752" height="24" fill="black" fill-opacity="0" transform="translate(0.322998)"/>
<path fill-rule="evenodd" clip-rule="evenodd" d="M14.7755 14H14.0353L13.7779 13.726C14.6869 12.589 15.2398 11.115 15.2398 9.5C15.2398 5.91 12.5268 3 9.17983 3C5.83287 3 3.11987 5.91 3.11987 9.5C3.11987 13.09 5.83287 16 9.17983 16C10.6855 16 12.0588 15.408 13.1188 14.434L13.3761 14.708V15.5L18.0358 20.491L19.4258 19L14.7755 14V14ZM9.17985 14C6.86215 14 4.9845 11.986 4.9845 9.5C4.9845 7.015 6.86215 5 9.17985 5C11.4966 5 13.3752 7.015 13.3752 9.5C13.3752 11.986 11.4966 14 9.17985 14V14Z" fill="#EEEEEE" fill-opacity="0.5"/>
</svg>
